<?xml version="1.0" encoding="UTF-8" standalone="no"?>
<!DOCTYPE svg PUBLIC "-//W3C//DTD SVG 1.1//EN" "http://www.w3.org/Graphics/SVG/1.1/DTD/svg11.dtd">
<svg width="100%" height="100%" viewBox="0 0 128 20" version="1.1" xmlns="http://www.w3.org/2000/svg" xmlns:xlink="http://www.w3.org/1999/xlink" xml:space="preserve" xmlns:serif="http://www.serif.com/" style="fill-rule:evenodd;clip-rule:evenodd;stroke-linejoin:round;stroke-miterlimit:2;">
    <path d="M18.853,11.277C18.626,12.444 16.821,13.721 14.749,13.968C13.668,14.097 12.604,14.216 11.469,14.164C9.614,14.079 8.15,13.721 8.15,13.721C8.15,13.901 8.161,14.073 8.183,14.234C8.424,16.066 9.999,16.175 11.49,16.226C12.996,16.278 14.336,15.855 14.336,15.855L14.398,17.216C14.398,17.216 13.345,17.782 11.469,17.886C10.435,17.943 9.151,17.86 7.655,17.464C4.41,16.605 3.852,13.147 3.767,9.637C3.741,8.596 3.757,7.613 3.757,6.791C3.757,3.203 6.108,2.151 6.108,2.151C7.293,1.607 9.327,1.378 11.442,1.361L11.494,1.361C13.609,1.378 15.644,1.607 16.83,2.151C16.83,2.151 19.181,3.203 19.181,6.791C19.181,6.791 19.21,9.439 18.853,11.277ZM16.407,7.07C16.407,6.182 16.181,5.476 15.727,4.954C15.259,4.432 14.646,4.165 13.884,4.165C13.003,4.165 12.336,4.503 11.895,5.18L11.467,5.899L11.038,5.18C10.597,4.503 9.93,4.165 9.049,4.165C8.288,4.165 7.674,4.432 7.206,4.954C6.752,5.476 6.526,6.182 6.526,7.07L6.526,11.415L8.247,11.415L8.247,7.198C8.247,6.309 8.621,5.857 9.369,5.857C10.196,5.857 10.611,6.393 10.611,7.451L10.611,9.759L12.322,9.759L12.322,7.451C12.322,6.393 12.737,5.857 13.564,5.857C14.312,5.857 14.686,6.309 14.686,7.198L14.686,11.415L16.407,11.415L16.407,7.07Z" style="fill:rgb(64,0,0);fill-rule:nonzero;"/>
    <g transform="matrix(0.0368889,0,0,0.0368889,56.1573,1.30203)">
        <path d="M427.137,0L32.865,0C14.743,0 0,14.743 0,32.865L0,441.408C0,451.661 8.341,460.002 18.594,460.002L427.137,460.002C445.259,460.002 460.002,445.259 460.002,427.137L460.002,32.865C460.002,14.743 445.259,0 427.137,0ZM139.001,56.001C178.15,56.001 210.001,87.852 210.001,127.001C210.001,166.15 178.15,198.001 139.001,198.001C99.852,198.001 68.001,166.15 68.001,127.001C68.001,87.852 99.852,56.001 139.001,56.001ZM405.24,393.215C402.606,398.016 397.565,401.001 392.089,401.001L67.913,401.001C62.436,401.001 57.395,398.017 54.762,393.215C52.128,388.413 52.32,382.558 55.263,377.94L132.355,256.956C135.109,252.634 139.879,250.017 145.005,250.017C150.131,250.017 154.901,252.634 157.655,256.956L194.684,315.067L267.03,201.531C269.784,197.208 274.554,194.592 279.68,194.592C284.805,194.592 289.576,197.209 292.33,201.531L404.739,377.94C407.682,382.559 407.874,388.414 405.24,393.215Z" style="fill:rgb(64,0,0);fill-rule:nonzero;"/>
    </g>
    <path d="M117.207,1.943C121.77,1.943 125.469,5.26 125.469,9.351C125.469,13.442 121.77,16.759 117.207,16.759C116.209,16.759 115.254,16.597 114.368,16.306C115.958,15.27 115.963,15.224 115.96,15.047C115.958,14.949 115.905,14.856 115.82,14.805C115.692,14.728 115.527,14.764 115.441,14.884C115.278,15.018 114.49,15.547 113.702,16.06C113.7,16.059 113.698,16.058 113.696,16.057C111.777,17.216 108.944,17.613 108.944,17.613C109.871,16.686 110.197,14.782 110.311,13.43C109.448,12.26 108.944,10.859 108.944,9.351C108.944,5.26 112.644,1.943 117.207,1.943ZM113.218,8.496C112.746,8.496 112.363,8.879 112.363,9.351C112.363,9.823 112.746,10.206 113.218,10.206C113.69,10.206 114.073,9.823 114.073,9.351C114.073,8.879 113.69,8.496 113.218,8.496ZM117.207,8.496C116.735,8.496 116.352,8.879 116.352,9.351C116.352,9.823 116.735,10.206 117.207,10.206C117.678,10.206 118.061,9.823 118.061,9.351C118.061,8.879 117.678,8.496 117.207,8.496ZM121.195,8.496C120.724,8.496 120.341,8.879 120.341,9.351C120.341,9.823 120.724,10.206 121.195,10.206C121.667,10.206 122.05,9.823 122.05,9.351C122.05,8.879 121.667,8.496 121.195,8.496Z" style="fill:rgb(64,0,0);fill-rule:nonzero;"/>
</svg>
